<svg xmlns="http://www.w3.org/2000/svg" width="512" height="512" viewBox="0 0 512 512">
  <defs>
    <radialGradient id="bg2" cx="50%" cy="34%" r="74%">
      <stop offset="0%" stop-color="#3FB079"/>
      <stop offset="100%" stop-color="#1E7A50"/>
    </radialGradient>
    <linearGradient id="poo2" x1="0" y1="0" x2="0" y2="1">
      <stop offset="0%" stop-color="#A56C38"/>
      <stop offset="100%" stop-color="#6E3F1C"/>
    </linearGradient>
    <linearGradient id="crown2" x1="0" y1="0" x2="0" y2="1">
      <stop offset="0%" stop-color="#FFE08A"/>
      <stop offset="100%" stop-color="#F2B100"/>
    </linearGradient>
  </defs>

  <rect width="512" height="512" fill="url(#bg2)"/>

  <!-- corona -->
  <g>
    <path d="M210 206 L218 156 L244 188 L256 148 L268 188 L294 156 L302 206 Z"
          fill="url(#crown2)" stroke="#C9920E" stroke-width="4" stroke-linejoin="round"/>
    <circle cx="256" cy="150" r="7" fill="#FFEFC2" stroke="#C9920E" stroke-width="3"/>
  </g>

  <g fill="url(#poo2)">
    <path d="M108 420 A148 90 0 0 1 404 420 Z"/>
    <path d="M140 354 A116 82 0 0 1 372 354 Z"/>
    <path d="M172 294 A84 64 0 0 1 340 294 Z"/>
    <path d="M212 250 A44 44 0 0 1 300 250 Z"/>
  </g>
  <ellipse cx="206" cy="304" rx="58" ry="32" fill="#ffffff" opacity="0.10"/>

  <!-- ojos decididos -->
  <g>
    <ellipse cx="222" cy="326" rx="29" ry="33" fill="#fff"/>
    <ellipse cx="290" cy="326" rx="29" ry="33" fill="#fff"/>
    <circle cx="228" cy="332" r="13" fill="#241A10"/>
    <circle cx="296" cy="332" r="13" fill="#241A10"/>
    <circle cx="224" cy="327" r="4.5" fill="#fff"/>
    <circle cx="292" cy="327" r="4.5" fill="#fff"/>
    <!-- cejas -->
    <path d="M198 300 L250 312" stroke="#3A2410" stroke-width="9" stroke-linecap="round"/>
    <path d="M314 300 L262 312" stroke="#3A2410" stroke-width="9" stroke-linecap="round"/>
  </g>
  <!-- sonrisa confiada -->
  <path d="M218 374 Q256 410 294 374 Z" fill="#2C1B0E"/>
</svg>
