<svg xmlns="http://www.w3.org/2000/svg" viewBox="0 0 512 512" width="512" height="512">
  <defs>
    <linearGradient id="bg" x1="0" y1="0" x2="1" y2="1">
      <stop offset="0" stop-color="#FBEFD6"/><stop offset="1" stop-color="#F4D79E"/>
    </linearGradient>
    <linearGradient id="poo" x1="0" y1="0" x2="0" y2="1">
      <stop offset="0" stop-color="#A4632F"/><stop offset="1" stop-color="#5E3417"/>
    </linearGradient>
  </defs>
  <rect width="512" height="512" rx="115" fill="url(#bg)"/>
  <g fill="url(#poo)">
    <ellipse cx="256" cy="376" rx="150" ry="62"/>
    <ellipse cx="256" cy="306" rx="116" ry="54"/>
    <ellipse cx="256" cy="242" rx="82" ry="44"/>
    <path d="M256 158c-33 0-56 25-56 52 0 17 17 29 56 29s56-12 56-29c0-27-23-52-56-52z"/>
  </g>
  <g fill="#fff"><circle cx="233" cy="304" r="15"/><circle cx="289" cy="304" r="15"/></g>
  <g fill="#2A1B0E"><circle cx="235" cy="307" r="7"/><circle cx="291" cy="307" r="7"/></g>
  <path d="M231 336q25 22 53 0" stroke="#2A1B0E" stroke-width="8" fill="none" stroke-linecap="round"/>
</svg>
