<svg xmlns="http://www.w3.org/2000/svg" width="512" height="512" viewBox="0 0 512 512">
  <defs>
    <radialGradient id="bg1" cx="50%" cy="36%" r="72%">
      <stop offset="0%" stop-color="#F4BC60"/>
      <stop offset="100%" stop-color="#C77C24"/>
    </radialGradient>
    <linearGradient id="poo1" x1="0" y1="0" x2="0" y2="1">
      <stop offset="0%" stop-color="#A56C38"/>
      <stop offset="100%" stop-color="#6E3F1C"/>
    </linearGradient>
  </defs>

  <rect width="512" height="512" rx="0" fill="url(#bg1)"/>

  <g fill="url(#poo1)">
    <path d="M108 418 A148 92 0 0 1 404 418 Z"/>
    <path d="M140 350 A116 84 0 0 1 372 350 Z"/>
    <path d="M172 288 A84 66 0 0 1 340 288 Z"/>
    <path d="M210 240 A46 48 0 0 1 302 240 Z"/>
  </g>
  <!-- brillo -->
  <ellipse cx="206" cy="300" rx="60" ry="34" fill="#ffffff" opacity="0.10"/>

  <!-- ojos -->
  <g>
    <ellipse cx="222" cy="322" rx="30" ry="34" fill="#fff"/>
    <ellipse cx="290" cy="322" rx="30" ry="34" fill="#fff"/>
    <circle cx="228" cy="330" r="14" fill="#241A10"/>
    <circle cx="296" cy="330" r="14" fill="#241A10"/>
    <circle cx="223" cy="324" r="5" fill="#fff"/>
    <circle cx="291" cy="324" r="5" fill="#fff"/>
  </g>
  <!-- sonrisa -->
  <path d="M214 372 Q256 418 298 372 Z" fill="#2C1B0E"/>
  <path d="M232 384 Q256 396 280 384 Z" fill="#E9608A"/>
</svg>
