<svg xmlns="http://www.w3.org/2000/svg" width="512" height="512" viewBox="0 0 512 512">
  <defs>
    <radialGradient id="bg3" cx="50%" cy="32%" r="78%">
      <stop offset="0%" stop-color="#FBEAD2"/>
      <stop offset="100%" stop-color="#F2D2A6"/>
    </radialGradient>
    <linearGradient id="poo3" x1="0" y1="0" x2="0" y2="1">
      <stop offset="0%" stop-color="#B07A45"/>
      <stop offset="100%" stop-color="#7E4D26"/>
    </linearGradient>
  </defs>

  <rect width="512" height="512" fill="url(#bg3)"/>

  <g fill="url(#poo3)">
    <path d="M116 416 A140 86 0 0 1 396 416 Z"/>
    <path d="M148 354 A108 78 0 0 1 364 354 Z"/>
    <path d="M180 298 A76 60 0 0 1 332 298 Z"/>
    <path d="M218 256 A38 40 0 0 1 294 256 Z"/>
  </g>

  <!-- mejillas -->
  <ellipse cx="190" cy="356" rx="22" ry="14" fill="#F08AA6" opacity="0.55"/>
  <ellipse cx="322" cy="356" rx="22" ry="14" fill="#F08AA6" opacity="0.55"/>

  <!-- ojos puntito kawaii -->
  <circle cx="224" cy="332" r="13" fill="#2C1B0E"/>
  <circle cx="288" cy="332" r="13" fill="#2C1B0E"/>
  <circle cx="220" cy="328" r="4.5" fill="#fff"/>
  <circle cx="284" cy="328" r="4.5" fill="#fff"/>

  <!-- boquita -->
  <path d="M244 360 q12 14 24 0" fill="none" stroke="#2C1B0E" stroke-width="7" stroke-linecap="round"/>
</svg>
